# xmcd
#
# Track frame offsets: 
#        150
#        22750
#        39110
#        57915
#        74087
#        88167
#        105890
#        120510
#        137275
#        152717
#        167452
#        183297
#        200317
#        219305
#        232605
#        249447
#
# Disc length: 3566 seconds
#
# Revision: 4
# Processed by: cddbd v1.5.2PL0 Copyright (c) Steve Scherf et al.
# Submitted via: ExactAudioCopy v0.99pb4
#
DISCID=b90dec10
DTITLE=Various Artist - DanceNet 5
DYEAR=2000
DGENRE=Dance
TTITLE0=Darude - Out Of Control
TTITLE1=Waldo's People Feat. Herbie - Bounce
TTITLE2=Melanie C - I Turn To You
TTITLE3=ATC - Around The World
TTITLE4=Vengaboys - Uncle John From Jamaica
TTITLE5=Kim Lukas - Let It Be The Night
TTITLE6=Alice Deejay - Will I Ever
TTITLE7=DJ Jean - Love Come Home
TTITLE8=Snap - Gimme a Thrill
TTITLE9=Billie Piper - Day and Night
TTITLE10=7th District Inc. Feat. Janine Cross - What A Night
TTITLE11=Tom Novy - Welcome To The Race
TTITLE12=Soundfreak Feat. Ville Pusa - Ensam Igen
TTITLE13=Hypertraxx - The Darkside
TTITLE14=DJ Aligator Project - Lollipop
TTITLE15=Alkalyne - Move
EXTD=YEAR: 2000
EXTT0=
EXTT1=
EXTT2=
EXTT3=
EXTT4=
EXTT5=
EXTT6=
EXTT7=
EXTT8=
EXTT9=
EXTT10=
EXTT11=
EXTT12=
EXTT13=
EXTT14=
EXTT15=
PLAYORDER=
